<svg width="1920" height="26" viewBox="0 0 1920 26" fill="none" xmlns="http://www.w3.org/2000/svg">
<path d="M25.1282 0.70459H0.198242V13.1695H25.1282V0.70459Z" fill="#F9EDDE"/>
<path d="M523.725 0.70459H498.795V13.1695H523.725V0.70459Z" fill="#F9EDDE"/>
<path d="M473.865 13.1718H498.795V25.6367H473.865V13.1718Z" fill="#F9EDDE"/>
<path d="M972.467 13.1718H997.396V25.6367H972.467V13.1718Z" fill="#F9EDDE"/>
<path d="M1022.33 13.1718H1047.26V25.6367H1022.33V13.1718Z" fill="#F9EDDE"/>
<path d="M1072.18 13.1718H1097.11V25.6367H1072.18V13.1718Z" fill="#F9EDDE"/>
<path d="M1122.04 13.1718H1146.97V25.6367H1122.04V13.1718Z" fill="#F9EDDE"/>
<path d="M1171.9 13.1718H1196.83V25.6367H1171.9V13.1718Z" fill="#F9EDDE"/>
<path d="M74.9875 0.70459H50.0576V13.1695H74.9875V0.70459Z" fill="#F9EDDE"/>
<path d="M573.588 0.70459H548.658V13.1695H573.588V0.70459Z" fill="#F9EDDE"/>
<path d="M424.006 13.1718H448.936V25.6367H424.006V13.1718Z" fill="#F9EDDE"/>
<path d="M922.603 13.1718H947.533V25.6367H922.603V13.1718Z" fill="#F9EDDE"/>
<path d="M124.85 0.70459H99.9199V13.1695H124.85V0.70459Z" fill="#F9EDDE"/>
<path d="M623.447 0.70459H598.518V13.1695H623.447V0.70459Z" fill="#F9EDDE"/>
<path d="M374.147 13.1718H399.077V25.6367H374.147V13.1718Z" fill="#F9EDDE"/>
<path d="M872.744 13.1718H897.674V25.6367H872.744V13.1718Z" fill="#F9EDDE"/>
<path d="M174.707 0.70459H149.777V13.1695H174.707V0.70459Z" fill="#F9EDDE"/>
<path d="M673.303 0.70459H648.374V13.1695H673.303V0.70459Z" fill="#F9EDDE"/>
<path d="M324.287 13.1718H349.217V25.6367H324.287V13.1718Z" fill="#F9EDDE"/>
<path d="M822.888 13.1718H847.818V25.6367H822.888V13.1718Z" fill="#F9EDDE"/>
<path d="M224.566 0.70459H199.636V13.1695H224.566V0.70459Z" fill="#F9EDDE"/>
<path d="M723.167 0.70459H698.237V13.1695H723.167V0.70459Z" fill="#F9EDDE"/>
<path d="M274.428 13.1718H299.358V25.6367H274.428V13.1718Z" fill="#F9EDDE"/>
<path d="M773.025 13.1718H797.955V25.6367H773.025V13.1718Z" fill="#F9EDDE"/>
<path d="M274.429 0.70459H249.499V13.1695H274.429V0.70459Z" fill="#F9EDDE"/>
<path d="M773.026 0.70459H748.096V13.1695H773.026V0.70459Z" fill="#F9EDDE"/>
<path d="M224.569 13.1718H249.499V25.6367H224.569V13.1718Z" fill="#F9EDDE"/>
<path d="M723.166 13.1718H748.096V25.6367H723.166V13.1718Z" fill="#F9EDDE"/>
<path d="M324.288 0.70459H299.358V13.1695H324.288V0.70459Z" fill="#F9EDDE"/>
<path d="M822.884 0.70459H797.955V13.1695H822.884V0.70459Z" fill="#F9EDDE"/>
<path d="M174.706 13.1718H199.636V25.6367H174.706V13.1718Z" fill="#F9EDDE"/>
<path d="M673.307 13.1718H698.237V25.6367H673.307V13.1718Z" fill="#F9EDDE"/>
<path d="M374.147 0.70459H349.217V13.1695H374.147V0.70459Z" fill="#F9EDDE"/>
<path d="M872.748 0.70459H847.818V13.1695H872.748V0.70459Z" fill="#F9EDDE"/>
<path d="M124.847 13.1718H149.777V25.6367H124.847V13.1718Z" fill="#F9EDDE"/>
<path d="M623.444 13.1718H648.374V25.6367H623.444V13.1718Z" fill="#F9EDDE"/>
<path d="M424.007 0.70459H399.077V13.1695H424.007V0.70459Z" fill="#F9EDDE"/>
<path d="M922.604 0.70459H897.674V13.1695H922.604V0.70459Z" fill="#F9EDDE"/>
<path d="M74.99 13.1718H99.9199V25.6367H74.99V13.1718Z" fill="#F9EDDE"/>
<path d="M573.588 13.1718H598.518V25.6367H573.588V13.1718Z" fill="#F9EDDE"/>
<path d="M473.866 0.70459H448.936V13.1695H473.866V0.70459Z" fill="#F9EDDE"/>
<path d="M972.463 0.70459H947.533V13.1695H972.463V0.70459Z" fill="#F9EDDE"/>
<path d="M1022.33 0.70459H997.396V13.1695H1022.33V0.70459Z" fill="#F9EDDE"/>
<path d="M1072.19 0.70459H1047.26V13.1695H1072.19V0.70459Z" fill="#F9EDDE"/>
<path d="M1122.04 0.70459H1097.11V13.1695H1122.04V0.70459Z" fill="#F9EDDE"/>
<path d="M1171.9 0.70459H1146.97V13.1695H1171.9V0.70459Z" fill="#F9EDDE"/>
<path d="M25.1277 13.1718H50.0576V25.6367H25.1277V13.1718Z" fill="#F9EDDE"/>
<path d="M523.728 13.1718H548.658V25.6367H523.728V13.1718Z" fill="#F9EDDE"/>
<path d="M50.0578 0.70459H25.1279V13.1695H50.0578V0.70459Z" fill="#606D01"/>
<path d="M548.656 0.70459H523.726V13.1695H548.656V0.70459Z" fill="#606D01"/>
<path d="M448.939 13.1718H473.869V25.6367H448.939V13.1718Z" fill="#606D01"/>
<path d="M947.537 13.1718H972.467V25.6367H947.537V13.1718Z" fill="#606D01"/>
<path d="M997.393 13.1718H1022.32V25.6367H997.393V13.1718Z" fill="#606D01"/>
<path d="M1047.25 13.1718H1072.18V25.6367H1047.25V13.1718Z" fill="#606D01"/>
<path d="M1097.12 13.1718H1122.04V25.6367H1097.12V13.1718Z" fill="#606D01"/>
<path d="M1146.97 13.1718H1171.9V25.6367H1146.97V13.1718Z" fill="#606D01"/>
<path d="M99.9172 0.70459H74.9873V13.1695H99.9172V0.70459Z" fill="#606D01"/>
<path d="M598.515 0.70459H573.585V13.1695H598.515V0.70459Z" fill="#606D01"/>
<path d="M399.077 13.1718H424.007V25.6367H399.077V13.1718Z" fill="#606D01"/>
<path d="M897.677 13.1718H922.606V25.6367H897.677V13.1718Z" fill="#606D01"/>
<path d="M149.777 0.70459H124.847V13.1695H149.777V0.70459Z" fill="#606D01"/>
<path d="M648.377 0.70459H623.447V13.1695H648.377V0.70459Z" fill="#606D01"/>
<path d="M349.218 13.1718H374.147V25.6367H349.218V13.1718Z" fill="#606D01"/>
<path d="M847.815 13.1718H872.745V25.6367H847.815V13.1718Z" fill="#606D01"/>
<path d="M199.639 0.70459H174.709V13.1695H199.639V0.70459Z" fill="#606D01"/>
<path d="M698.237 0.70459H673.307V13.1695H698.237V0.70459Z" fill="#606D01"/>
<path d="M299.357 13.1718H324.287V25.6367H299.357V13.1718Z" fill="#606D01"/>
<path d="M797.956 13.1718H822.886V25.6367H797.956V13.1718Z" fill="#606D01"/>
<path d="M249.498 0.70459H224.568V13.1695H249.498V0.70459Z" fill="#606D01"/>
<path d="M748.096 0.70459H723.166V13.1695H748.096V0.70459Z" fill="#606D01"/>
<path d="M249.496 13.1718H274.426V25.6367H249.496V13.1718Z" fill="#606D01"/>
<path d="M748.095 13.1718H773.025V25.6367H748.095V13.1718Z" fill="#606D01"/>
<path d="M299.356 0.70459H274.426V13.1695H299.356V0.70459Z" fill="#606D01"/>
<path d="M797.955 0.70459H773.025V13.1695H797.955V0.70459Z" fill="#606D01"/>
<path d="M199.638 13.1718H224.568V25.6367H199.638V13.1718Z" fill="#606D01"/>
<path d="M698.236 13.1718H723.166V25.6367H698.236V13.1718Z" fill="#606D01"/>
<path d="M349.217 0.70459H324.287V13.1695H349.217V0.70459Z" fill="#606D01"/>
<path d="M847.816 0.70459H822.886V13.1695H847.816V0.70459Z" fill="#606D01"/>
<path d="M149.779 13.1718H174.709V25.6367H149.779V13.1718Z" fill="#606D01"/>
<path d="M648.377 13.1718H673.307V25.6367H648.377V13.1718Z" fill="#606D01"/>
<path d="M399.077 0.70459H374.147V13.1695H399.077V0.70459Z" fill="#606D01"/>
<path d="M897.675 0.70459H872.745V13.1695H897.675V0.70459Z" fill="#606D01"/>
<path d="M99.9173 13.1718H124.847V25.6367H99.9173V13.1718Z" fill="#606D01"/>
<path d="M598.517 13.1718H623.447V25.6367H598.517V13.1718Z" fill="#606D01"/>
<path d="M448.937 0.70459H424.007V13.1695H448.937V0.70459Z" fill="#606D01"/>
<path d="M947.536 0.70459H922.606V13.1695H947.536V0.70459Z" fill="#606D01"/>
<path d="M50.0574 13.1718H74.9873V25.6367H50.0574V13.1718Z" fill="#606D01"/>
<path d="M548.655 13.1718H573.585V25.6367H548.655V13.1718Z" fill="#606D01"/>
<path d="M498.799 0.70459H473.869V13.1695H498.799V0.70459Z" fill="#606D01"/>
<path d="M997.397 0.70459H972.467V13.1695H997.397V0.70459Z" fill="#606D01"/>
<path d="M1047.25 0.70459H1022.32V13.1695H1047.25V0.70459Z" fill="#606D01"/>
<path d="M1097.11 0.70459H1072.18V13.1695H1097.11V0.70459Z" fill="#606D01"/>
<path d="M1146.97 0.70459H1122.04V13.1695H1146.97V0.70459Z" fill="#606D01"/>
<path d="M1196.83 0.70459H1171.9V13.1695H1196.83V0.70459Z" fill="#606D01"/>
<path d="M0.198015 13.1718H25.1279V25.6367H0.198015V13.1718Z" fill="#606D01"/>
<path d="M498.796 13.1718H523.726V25.6367H498.796V13.1718Z" fill="#606D01"/>
<path d="M1221.76 0.70459H1196.83V13.1695H1221.76V0.70459Z" fill="#F9EDDE"/>
<path d="M1720.36 0.70459H1695.43V13.1695H1720.36V0.70459Z" fill="#F9EDDE"/>
<path d="M1670.5 13.1718H1695.43V25.6367H1670.5V13.1718Z" fill="#F9EDDE"/>
<path d="M1271.62 0.70459H1246.69V13.1695H1271.62V0.70459Z" fill="#F9EDDE"/>
<path d="M1770.22 0.70459H1745.29V13.1695H1770.22V0.70459Z" fill="#F9EDDE"/>
<path d="M1620.65 13.1718H1645.58V25.6367H1620.65V13.1718Z" fill="#F9EDDE"/>
<path d="M1321.49 0.70459H1296.56V13.1695H1321.49V0.70459Z" fill="#F9EDDE"/>
<path d="M1820.08 0.70459H1795.15V13.1695H1820.08V0.70459Z" fill="#F9EDDE"/>
<path d="M1570.78 13.1718H1595.71V25.6367H1570.78V13.1718Z" fill="#F9EDDE"/>
<path d="M1371.34 0.70459H1346.41V13.1695H1371.34V0.70459Z" fill="#F9EDDE"/>
<path d="M1869.93 0.70459H1845V13.1695H1869.93V0.70459Z" fill="#F9EDDE"/>
<path d="M1520.92 13.1718H1545.85V25.6367H1520.92V13.1718Z" fill="#F9EDDE"/>
<path d="M1421.2 0.70459H1396.27V13.1695H1421.2V0.70459Z" fill="#F9EDDE"/>
<path d="M1919.8 0.70459H1894.87V13.1695H1919.8V0.70459Z" fill="#F9EDDE"/>
<path d="M1471.07 13.1718H1496V25.6367H1471.07V13.1718Z" fill="#F9EDDE"/>
<path d="M1471.07 0.70459H1446.14V13.1695H1471.07V0.70459Z" fill="#F9EDDE"/>
<path d="M1421.21 13.1718H1446.14V25.6367H1421.21V13.1718Z" fill="#F9EDDE"/>
<path d="M1520.93 0.70459H1496V13.1695H1520.93V0.70459Z" fill="#F9EDDE"/>
<path d="M1371.34 13.1718H1396.27V25.6367H1371.34V13.1718Z" fill="#F9EDDE"/>
<path d="M1869.94 13.1718H1894.87V25.6367H1869.94V13.1718Z" fill="#F9EDDE"/>
<path d="M1570.78 0.70459H1545.85V13.1695H1570.78V0.70459Z" fill="#F9EDDE"/>
<path d="M1321.48 13.1718H1346.41V25.6367H1321.48V13.1718Z" fill="#F9EDDE"/>
<path d="M1820.07 13.1718H1845V25.6367H1820.07V13.1718Z" fill="#F9EDDE"/>
<path d="M1620.64 0.70459H1595.71V13.1695H1620.64V0.70459Z" fill="#F9EDDE"/>
<path d="M1271.63 13.1718H1296.56V25.6367H1271.63V13.1718Z" fill="#F9EDDE"/>
<path d="M1770.22 13.1718H1795.15V25.6367H1770.22V13.1718Z" fill="#F9EDDE"/>
<path d="M1670.51 0.70459H1645.58V13.1695H1670.51V0.70459Z" fill="#F9EDDE"/>
<path d="M1221.76 13.1718H1246.69V25.6367H1221.76V13.1718Z" fill="#F9EDDE"/>
<path d="M1720.36 13.1718H1745.29V25.6367H1720.36V13.1718Z" fill="#F9EDDE"/>
<path d="M1246.69 0.70459H1221.76V13.1695H1246.69V0.70459Z" fill="#606D01"/>
<path d="M1745.29 0.70459H1720.36V13.1695H1745.29V0.70459Z" fill="#606D01"/>
<path d="M1645.58 13.1718H1670.51V25.6367H1645.58V13.1718Z" fill="#606D01"/>
<path d="M1296.55 0.70459H1271.62V13.1695H1296.55V0.70459Z" fill="#606D01"/>
<path d="M1795.15 0.70459H1770.22V13.1695H1795.15V0.70459Z" fill="#606D01"/>
<path d="M1595.71 13.1718H1620.64V25.6367H1595.71V13.1718Z" fill="#606D01"/>
<path d="M1346.41 0.70459H1321.48V13.1695H1346.41V0.70459Z" fill="#606D01"/>
<path d="M1845.02 0.70459H1820.09V13.1695H1845.02V0.70459Z" fill="#606D01"/>
<path d="M1545.85 13.1718H1570.78V25.6367H1545.85V13.1718Z" fill="#606D01"/>
<path d="M1396.27 0.70459H1371.34V13.1695H1396.27V0.70459Z" fill="#606D01"/>
<path d="M1894.88 0.70459H1869.95V13.1695H1894.88V0.70459Z" fill="#606D01"/>
<path d="M1495.99 13.1718H1520.92V25.6367H1495.99V13.1718Z" fill="#606D01"/>
<path d="M1446.13 0.70459H1421.2V13.1695H1446.13V0.70459Z" fill="#606D01"/>
<path d="M1446.14 13.1718H1471.07V25.6367H1446.14V13.1718Z" fill="#606D01"/>
<path d="M1496 0.70459H1471.07V13.1695H1496V0.70459Z" fill="#606D01"/>
<path d="M1396.27 13.1718H1421.2V25.6367H1396.27V13.1718Z" fill="#606D01"/>
<path d="M1894.87 13.1718H1919.8V25.6367H1894.87V13.1718Z" fill="#606D01"/>
<path d="M1545.85 0.70459H1520.92V13.1695H1545.85V0.70459Z" fill="#606D01"/>
<path d="M1346.41 13.1718H1371.34V25.6367H1346.41V13.1718Z" fill="#606D01"/>
<path d="M1845.02 13.1718H1869.95V25.6367H1845.02V13.1718Z" fill="#606D01"/>
<path d="M1595.71 0.70459H1570.78V13.1695H1595.71V0.70459Z" fill="#606D01"/>
<path d="M1296.55 13.1718H1321.48V25.6367H1296.55V13.1718Z" fill="#606D01"/>
<path d="M1795.16 13.1718H1820.09V25.6367H1795.16V13.1718Z" fill="#606D01"/>
<path d="M1645.57 0.70459H1620.64V13.1695H1645.57V0.70459Z" fill="#606D01"/>
<path d="M1246.69 13.1718H1271.62V25.6367H1246.69V13.1718Z" fill="#606D01"/>
<path d="M1745.29 13.1718H1770.22V25.6367H1745.29V13.1718Z" fill="#606D01"/>
<path d="M1695.44 0.70459H1670.51V13.1695H1695.44V0.70459Z" fill="#606D01"/>
<path d="M1196.83 13.1718H1221.76V25.6367H1196.83V13.1718Z" fill="#606D01"/>
<path d="M1695.43 13.1718H1720.36V25.6367H1695.43V13.1718Z" fill="#606D01"/>
</svg>
